<mxfile host="app.diagrams.net" modified="2023-09-15T06:21:56.040Z" agent="Mozilla/5.0 (Windows NT 10.0; Win64; x64) AppleWebKit/537.36 (KHTML, like Gecko) Chrome/116.0.0.0 Safari/537.36 Edg/116.0.1938.81" etag="-XKEcH7eyH15klxsySB0" version="21.7.5" type="github">
  <diagram name="第 1 页" id="MCKPnE1U72HKYQa7IRgc">
    <mxGraphModel dx="2289" dy="1235" grid="1" gridSize="10" guides="1" tooltips="1" connect="1" arrows="1" fold="1" page="1" pageScale="1" pageWidth="827" pageHeight="1169" math="0" shadow="0">
      <root>
        <mxCell id="0" />
        <mxCell id="1" parent="0" />
        <mxCell id="5LsY7KsIf8gOEBTVYdIN-13" value="" style="rounded=0;html=1;jettySize=auto;orthogonalLoop=1;fontSize=11;endArrow=block;endFill=0;endSize=8;strokeWidth=1;shadow=0;labelBackgroundColor=none;edgeStyle=orthogonalEdgeStyle;" edge="1" parent="1" source="5LsY7KsIf8gOEBTVYdIN-14" target="5LsY7KsIf8gOEBTVYdIN-17">
          <mxGeometry relative="1" as="geometry" />
        </mxCell>
        <mxCell id="5LsY7KsIf8gOEBTVYdIN-14" value="PDF批注页面发起多人批注" style="rounded=1;whiteSpace=wrap;html=1;fontSize=12;glass=0;strokeWidth=1;shadow=0;" vertex="1" parent="1">
          <mxGeometry x="170" y="90" width="170" height="40" as="geometry" />
        </mxCell>
        <mxCell id="5LsY7KsIf8gOEBTVYdIN-15" value="" style="rounded=0;html=1;jettySize=auto;orthogonalLoop=1;fontSize=11;endArrow=block;endFill=0;endSize=8;strokeWidth=1;shadow=0;labelBackgroundColor=none;edgeStyle=orthogonalEdgeStyle;" edge="1" parent="1" source="5LsY7KsIf8gOEBTVYdIN-17">
          <mxGeometry y="20" relative="1" as="geometry">
            <mxPoint as="offset" />
            <mxPoint x="255" y="400" as="targetPoint" />
          </mxGeometry>
        </mxCell>
        <mxCell id="5LsY7KsIf8gOEBTVYdIN-16" value="" style="edgeStyle=orthogonalEdgeStyle;rounded=0;html=1;jettySize=auto;orthogonalLoop=1;fontSize=11;endArrow=block;endFill=0;endSize=8;strokeWidth=1;shadow=0;labelBackgroundColor=none;" edge="1" parent="1" source="5LsY7KsIf8gOEBTVYdIN-17" target="5LsY7KsIf8gOEBTVYdIN-18">
          <mxGeometry y="10" relative="1" as="geometry">
            <mxPoint as="offset" />
          </mxGeometry>
        </mxCell>
        <mxCell id="5LsY7KsIf8gOEBTVYdIN-17" value="当前是否存在多人协作" style="rhombus;whiteSpace=wrap;html=1;shadow=0;fontFamily=Helvetica;fontSize=12;align=center;strokeWidth=1;spacing=6;spacingTop=-4;" vertex="1" parent="1">
          <mxGeometry x="185" y="210" width="140" height="130" as="geometry" />
        </mxCell>
        <mxCell id="5LsY7KsIf8gOEBTVYdIN-18" value="给提示信息，不能发起多人协作" style="rounded=1;whiteSpace=wrap;html=1;fontSize=12;glass=0;strokeWidth=1;shadow=0;" vertex="1" parent="1">
          <mxGeometry x="414" y="255" width="120" height="40" as="geometry" />
        </mxCell>
        <mxCell id="5LsY7KsIf8gOEBTVYdIN-28" value="发起多人PDF批注，并且隐藏底部tab栏" style="rounded=1;whiteSpace=wrap;html=1;fontSize=12;glass=0;strokeWidth=1;shadow=0;" vertex="1" parent="1">
          <mxGeometry x="170" y="400" width="170" height="40" as="geometry" />
        </mxCell>
        <mxCell id="5LsY7KsIf8gOEBTVYdIN-29" value="否" style="text;html=1;align=center;verticalAlign=middle;resizable=0;points=[];autosize=1;strokeColor=none;fillColor=none;" vertex="1" parent="1">
          <mxGeometry x="260" y="348" width="40" height="30" as="geometry" />
        </mxCell>
        <mxCell id="5LsY7KsIf8gOEBTVYdIN-30" value="是" style="text;html=1;align=center;verticalAlign=middle;resizable=0;points=[];autosize=1;strokeColor=none;fillColor=none;" vertex="1" parent="1">
          <mxGeometry x="340" y="240" width="40" height="30" as="geometry" />
        </mxCell>
        <mxCell id="5LsY7KsIf8gOEBTVYdIN-49" value="发起人处理多人批注流程" style="text;html=1;strokeColor=#82b366;fillColor=#d5e8d4;align=center;verticalAlign=middle;whiteSpace=wrap;rounded=0;" vertex="1" parent="1">
          <mxGeometry x="125" y="20" width="275" height="40" as="geometry" />
        </mxCell>
        <mxCell id="5LsY7KsIf8gOEBTVYdIN-51" value="" style="rounded=0;html=1;jettySize=auto;orthogonalLoop=1;fontSize=11;endArrow=block;endFill=0;endSize=8;strokeWidth=1;shadow=0;labelBackgroundColor=none;edgeStyle=orthogonalEdgeStyle;" edge="1" parent="1" source="5LsY7KsIf8gOEBTVYdIN-52" target="5LsY7KsIf8gOEBTVYdIN-55">
          <mxGeometry relative="1" as="geometry" />
        </mxCell>
        <mxCell id="5LsY7KsIf8gOEBTVYdIN-52" value="参与人页面出现加入多人PDF批注弹框" style="rounded=1;whiteSpace=wrap;html=1;fontSize=12;glass=0;strokeWidth=1;shadow=0;" vertex="1" parent="1">
          <mxGeometry x="645" y="80" width="170" height="40" as="geometry" />
        </mxCell>
        <mxCell id="5LsY7KsIf8gOEBTVYdIN-53" value="" style="rounded=0;html=1;jettySize=auto;orthogonalLoop=1;fontSize=11;endArrow=block;endFill=0;endSize=8;strokeWidth=1;shadow=0;labelBackgroundColor=none;edgeStyle=orthogonalEdgeStyle;" edge="1" parent="1" source="5LsY7KsIf8gOEBTVYdIN-55">
          <mxGeometry y="20" relative="1" as="geometry">
            <mxPoint as="offset" />
            <mxPoint x="730" y="390" as="targetPoint" />
          </mxGeometry>
        </mxCell>
        <mxCell id="5LsY7KsIf8gOEBTVYdIN-54" value="" style="edgeStyle=orthogonalEdgeStyle;rounded=0;html=1;jettySize=auto;orthogonalLoop=1;fontSize=11;endArrow=block;endFill=0;endSize=8;strokeWidth=1;shadow=0;labelBackgroundColor=none;" edge="1" parent="1" source="5LsY7KsIf8gOEBTVYdIN-55" target="5LsY7KsIf8gOEBTVYdIN-56">
          <mxGeometry y="10" relative="1" as="geometry">
            <mxPoint as="offset" />
          </mxGeometry>
        </mxCell>
        <mxCell id="5LsY7KsIf8gOEBTVYdIN-55" value="参与人是否加入多人PDF批注" style="rhombus;whiteSpace=wrap;html=1;shadow=0;fontFamily=Helvetica;fontSize=12;align=center;strokeWidth=1;spacing=6;spacingTop=-4;" vertex="1" parent="1">
          <mxGeometry x="660" y="200" width="140" height="130" as="geometry" />
        </mxCell>
        <mxCell id="5LsY7KsIf8gOEBTVYdIN-56" value="打开对应的PDF文件，直接加入多人批注" style="rounded=1;whiteSpace=wrap;html=1;fontSize=12;glass=0;strokeWidth=1;shadow=0;" vertex="1" parent="1">
          <mxGeometry x="889" y="242.5" width="126" height="45" as="geometry" />
        </mxCell>
        <mxCell id="5LsY7KsIf8gOEBTVYdIN-57" value="保持在当前页面，不做任何处理" style="rounded=1;whiteSpace=wrap;html=1;fontSize=12;glass=0;strokeWidth=1;shadow=0;" vertex="1" parent="1">
          <mxGeometry x="645" y="390" width="170" height="40" as="geometry" />
        </mxCell>
        <mxCell id="5LsY7KsIf8gOEBTVYdIN-58" value="否" style="text;html=1;align=center;verticalAlign=middle;resizable=0;points=[];autosize=1;strokeColor=none;fillColor=none;" vertex="1" parent="1">
          <mxGeometry x="735" y="338" width="40" height="30" as="geometry" />
        </mxCell>
        <mxCell id="5LsY7KsIf8gOEBTVYdIN-59" value="是" style="text;html=1;align=center;verticalAlign=middle;resizable=0;points=[];autosize=1;strokeColor=none;fillColor=none;" vertex="1" parent="1">
          <mxGeometry x="815" y="230" width="40" height="30" as="geometry" />
        </mxCell>
        <mxCell id="5LsY7KsIf8gOEBTVYdIN-60" value="参与人加入多人批注流程" style="text;html=1;strokeColor=#82b366;fillColor=#d5e8d4;align=center;verticalAlign=middle;whiteSpace=wrap;rounded=0;" vertex="1" parent="1">
          <mxGeometry x="600" y="20" width="275" height="40" as="geometry" />
        </mxCell>
      </root>
    </mxGraphModel>
  </diagram>
</mxfile>
